<svg xmlns="http://www.w3.org/2000/svg" viewBox="0 0 1024 1024">
  <defs>
    <linearGradient id="bg" x1="0" y1="0" x2="1" y2="1">
      <stop offset="0%" stop-color="#7c7fff"/>
      <stop offset="100%" stop-color="#5458f0"/>
    </linearGradient>
    <linearGradient id="brace" x1="0" y1="0" x2="0" y2="1">
      <stop offset="0%" stop-color="#ffffff"/>
      <stop offset="100%" stop-color="#e6e9ff"/>
    </linearGradient>
  </defs>
  <rect x="0" y="0" width="1024" height="1024" rx="224" ry="224" fill="url(#bg)"/>
  <g fill="none" stroke="url(#brace)" stroke-width="64" stroke-linecap="round" stroke-linejoin="round">
    <path d="M 360 264
             C 240 264 232 320 232 400
             L 232 464
             C 232 504 208 512 176 512
             C 208 512 232 520 232 560
             L 232 624
             C 232 704 240 760 360 760"/>
    <path d="M 664 264
             C 784 264 792 320 792 400
             L 792 464
             C 792 504 816 512 848 512
             C 816 512 792 520 792 560
             L 792 624
             C 792 704 784 760 664 760"/>
  </g>
  <g fill="#ffffff">
    <circle cx="420" cy="512" r="36"/>
    <circle cx="512" cy="512" r="36"/>
    <circle cx="604" cy="512" r="36"/>
  </g>
</svg>
